<svg xmlns="http://www.w3.org/2000/svg" width="1500" height="699" viewBox="0 0 1500 699">
<g>
<path d="M 271.50 585.47 C248.56,586.67 245.03,586.71 227.50,585.98 C180.64,584.01 125.70,573.38 118.57,564.90 C117.16,563.22 116.00,561.16 116.00,560.32 C116.00,558.63 127.41,490.57 129.09,482.20 C130.31,476.15 134.99,470.60 139.75,469.55 C141.33,469.21 154.29,470.04 168.56,471.41 C230.81,477.38 263.88,479.35 277.00,477.88 C296.04,475.75 307.54,468.01 311.51,454.65 C313.46,448.09 313.42,438.68 311.42,434.47 C307.82,426.89 300.27,421.49 213.50,364.50 C199.30,355.17 184.54,341.09 177.51,330.16 C167.53,314.64 160.44,296.08 157.92,278.87 C156.21,267.17 157.28,236.06 159.80,224.50 C165.11,200.06 175.13,180.29 190.27,164.35 C218.02,135.14 262.32,118.93 322.04,116.14 C361.07,114.31 421.66,118.87 461.37,126.61 C482.96,130.82 488.02,133.55 487.99,140.97 C487.98,142.91 484.91,162.17 481.17,183.77 C473.88,225.86 473.68,226.52 467.06,230.39 C463.88,232.25 463.32,232.24 428.67,229.62 C371.49,225.30 360.79,224.73 334.00,224.61 C309.48,224.50 308.28,224.59 302.73,226.83 C290.55,231.75 286.27,238.48 286.85,251.79 C287.07,256.71 294.39,263.87 307.43,271.92 C313.52,275.69 334.25,288.01 353.50,299.31 C398.91,325.96 397.96,325.37 407.94,333.28 C438.64,357.62 452.91,390.71 450.60,432.22 C447.48,488.31 422.54,529.52 375.12,556.97 C348.27,572.51 308.10,583.56 271.50,585.47 ZM 976.75 585.45 C928.42,588.19 883.36,584.01 840.84,572.85 C828.26,569.55 824.05,567.53 821.43,563.53 C819.82,561.08 820.04,559.23 826.51,520.23 C833.92,475.52 834.40,473.94 841.56,470.54 C845.18,468.82 846.16,468.85 872.40,471.38 C952.88,479.16 978.98,480.06 993.42,475.54 C1004.39,472.10 1012.65,464.27 1015.53,454.58 C1017.46,448.09 1017.41,438.66 1015.42,434.47 C1011.79,426.81 1007.66,423.85 923.00,368.21 C896.95,351.08 884.41,337.90 873.63,316.34 C860.14,289.32 856.84,257.07 864.11,223.29 C876.96,163.58 923.03,128.03 1000.50,118.02 C1037.41,113.26 1103.22,116.06 1153.50,124.55 C1179.03,128.86 1188.76,131.82 1190.97,135.94 C1192.76,139.29 1192.12,144.57 1185.10,184.35 C1177.78,225.84 1177.55,226.59 1171.06,230.39 C1167.88,232.25 1167.32,232.24 1132.67,229.63 C1062.32,224.32 1023.85,222.82 1013.50,224.98 C999.45,227.91 991.94,234.87 990.36,246.42 C989.44,253.13 992.60,258.79 1000.62,264.80 C1004.18,267.46 1026.53,281.06 1050.29,295.02 C1098.12,323.12 1107.62,329.16 1116.64,337.24 C1140.05,358.19 1151.07,380.19 1153.97,411.70 C1155.89,432.51 1152.90,457.58 1146.07,477.96 C1129.57,527.19 1087.55,562.11 1026.19,577.56 C1010.66,581.47 990.70,584.66 976.75,585.45 ZM 668.50 585.49 C657.50,585.78 643.10,586.18 636.50,586.37 C583.75,587.86 540.34,575.08 515.77,550.83 C497.42,532.72 489.00,510.27 489.00,479.44 C489.00,479.14 489.00,478.84 489.00,478.54 C489.00,476.10 489.00,474.04 489.05,471.97 C489.36,460.38 491.43,448.84 505.12,371.00 C512.80,327.27 520.63,282.73 522.51,272.00 C530.12,228.52 535.14,210.64 545.62,189.73 C554.46,172.09 567.88,155.53 581.95,144.92 C590.46,138.49 607.56,129.74 618.69,126.10 C626.35,123.60 640.58,120.39 652.00,118.60 C678.60,114.41 752.93,114.88 800.50,119.55 C830.27,122.47 833.16,123.01 836.38,126.22 C839.12,128.97 839.25,129.46 838.70,135.33 C837.48,148.36 825.85,212.56 824.19,215.40 C823.26,216.99 821.23,219.24 819.68,220.40 C816.89,222.48 816.05,222.51 745.68,223.04 C664.80,223.66 668.79,223.24 660.72,231.87 C657.64,235.16 655.65,238.56 654.18,243.05 C652.15,249.25 644.00,292.26 644.00,296.80 L 644.00 299.00 L 721.25 299.01 C781.35,299.03 799.05,299.31 801.00,300.29 C802.50,301.05 804.03,303.14 804.84,305.52 C806.08,309.21 805.67,312.30 799.16,348.41 C791.71,389.75 791.54,390.30 785.01,394.75 L 781.70 397.00 L 626.38 397.00 L 622.58 418.75 C616.42,454.13 615.59,460.89 616.88,465.62 C618.53,471.65 621.43,474.73 627.30,476.69 C632.00,478.26 639.22,478.46 701.98,478.77 C764.38,479.07 772.75,478.83 774.91,482.38 C775.40,483.19 775.57,484.19 775.98,485.44 C777.03,488.61 776.45,492.28 763.91,562.64 C762.47,570.73 759.92,574.71 754.72,576.98 C747.39,580.18 703.04,584.56 668.50,585.49 ZM 1300.70 578.04 C1297.63,579.91 1295.28,579.99 1242.17,580.00 L 1186.85 580.00 L 1183.92 577.08 C1181.94,575.10 1181.00,573.15 1181.00,571.04 C1181.00,568.06 1187.07,532.35 1200.12,458.50 C1203.42,439.80 1206.52,422.25 1206.99,419.50 C1207.47,416.75 1211.98,391.33 1217.02,363.00 C1222.05,334.67 1226.93,307.05 1227.85,301.61 L 1229.53 291.72 L 1248.51 282.80 C1312.51,252.70 1366.21,227.87 1366.55,228.22 C1366.57,228.24 1366.59,228.26 1366.61,228.27 C1367.04,228.69 1366.85,229.74 1355.94,291.35 L 1355.12 296.00 C1349.61,327.08 1342.58,367.12 1339.50,385.00 C1321.92,486.91 1306.77,570.54 1305.44,573.13 C1304.59,574.76 1302.46,576.97 1300.70,578.04 Z" fill="rgb(22,64,145)"/>
<path d="M 1269.50 219.49 C1255.75,225.96 1243.26,231.88 1241.75,232.65 C1239.14,233.98 1239.00,233.93 1239.02,231.78 C1239.03,230.52 1239.67,225.90 1240.45,221.50 C1241.23,217.10 1242.99,207.20 1244.36,199.50 C1245.73,191.80 1249.15,172.23 1251.96,156.00 C1254.76,139.77 1257.50,124.85 1258.04,122.84 C1258.60,120.75 1260.54,117.86 1262.55,116.09 L 1266.07 113.00 L 1379.09 113.00 L 1381.55 115.45 C1383.03,116.94 1384.00,119.06 1384.00,120.82 C1384.00,123.46 1376.19,169.14 1375.65,169.68 C1375.52,169.81 1357.21,178.42 1334.96,188.82 C1312.71,199.22 1283.25,213.02 1269.50,219.49 Z" fill="rgb(105,178,45)"/>
<path d="M 0.00 349.50 L 0.00 0.00 L 750.00 0.00 L 1500.00 0.00 L 1500.00 349.50 L 1500.00 699.00 L 750.00 699.00 L 0.00 699.00 L 0.00 349.50 ZM 271.50 585.47 C308.10,583.56 348.27,572.51 375.12,556.97 C422.54,529.52 447.48,488.31 450.60,432.22 C452.91,390.71 438.64,357.62 407.94,333.28 C397.96,325.37 398.91,325.96 353.50,299.31 C334.25,288.01 313.52,275.69 307.43,271.92 C294.39,263.87 287.07,256.71 286.85,251.79 C286.27,238.48 290.55,231.75 302.73,226.83 C308.28,224.59 309.48,224.50 334.00,224.61 C360.79,224.73 371.49,225.30 428.67,229.62 C463.32,232.24 463.88,232.25 467.06,230.39 C473.68,226.52 473.88,225.86 481.17,183.77 C484.91,162.17 487.98,142.91 487.99,140.97 C488.02,133.55 482.96,130.82 461.37,126.61 C421.66,118.87 361.07,114.31 322.04,116.14 C262.32,118.93 218.02,135.14 190.27,164.35 C175.13,180.29 165.11,200.06 159.80,224.50 C157.28,236.06 156.21,267.17 157.92,278.87 C160.44,296.08 167.53,314.64 177.51,330.16 C184.54,341.09 199.30,355.17 213.50,364.50 C300.27,421.49 307.82,426.89 311.42,434.47 C313.42,438.68 313.46,448.09 311.51,454.65 C307.54,468.01 296.04,475.75 277.00,477.88 C263.88,479.35 230.81,477.38 168.56,471.41 C154.29,470.04 141.33,469.21 139.75,469.55 C134.99,470.60 130.31,476.15 129.09,482.20 C127.41,490.57 116.00,558.63 116.00,560.32 C116.00,561.16 117.16,563.22 118.57,564.90 C125.70,573.38 180.64,584.01 227.50,585.98 C245.03,586.71 248.56,586.67 271.50,585.47 ZM 668.50 585.49 C703.04,584.56 747.39,580.18 754.72,576.98 C759.92,574.71 762.47,570.73 763.91,562.64 C776.45,492.28 777.03,488.61 775.98,485.44 C773.76,478.70 778.62,479.14 701.98,478.77 C639.22,478.46 632.00,478.26 627.30,476.69 C621.43,474.73 618.53,471.65 616.88,465.62 C615.59,460.89 616.42,454.13 622.58,418.75 L 626.38 397.00 L 704.04 397.00 L 781.70 397.00 L 785.01 394.75 C791.54,390.30 791.71,389.75 799.16,348.41 C805.67,312.30 806.08,309.21 804.84,305.52 C804.03,303.14 802.50,301.05 801.00,300.29 C799.05,299.31 781.35,299.03 721.25,299.01 L 644.00 299.00 L 644.00 296.80 C644.00,292.26 652.15,249.25 654.18,243.05 C655.65,238.56 657.64,235.16 660.72,231.87 C668.79,223.24 664.80,223.66 745.68,223.04 C816.05,222.51 816.89,222.48 819.68,220.40 C821.23,219.24 823.26,216.99 824.19,215.40 C825.85,212.56 837.48,148.36 838.70,135.33 C839.25,129.46 839.12,128.97 836.38,126.22 C833.16,123.01 830.27,122.47 800.50,119.55 C752.93,114.88 678.60,114.41 652.00,118.60 C640.58,120.39 626.35,123.60 618.69,126.10 C607.56,129.74 590.46,138.49 581.95,144.92 C567.88,155.53 554.46,172.09 545.62,189.73 C535.14,210.64 530.12,228.52 522.51,272.00 C520.63,282.73 512.80,327.27 505.12,371.00 C488.70,464.36 489.00,462.35 489.00,479.44 C489.00,510.27 497.42,532.72 515.77,550.83 C540.34,575.08 583.75,587.86 636.50,586.37 C643.10,586.18 657.50,585.78 668.50,585.49 ZM 976.75 585.45 C990.70,584.66 1010.66,581.47 1026.19,577.56 C1087.55,562.11 1129.57,527.19 1146.07,477.96 C1152.90,457.58 1155.89,432.51 1153.97,411.70 C1151.07,380.19 1140.05,358.19 1116.64,337.24 C1107.62,329.16 1098.12,323.12 1050.29,295.02 C1026.53,281.06 1004.18,267.46 1000.62,264.80 C992.60,258.79 989.44,253.13 990.36,246.42 C991.94,234.87 999.45,227.91 1013.50,224.98 C1023.85,222.82 1062.32,224.32 1132.67,229.63 C1167.32,232.24 1167.88,232.25 1171.06,230.39 C1177.55,226.59 1177.78,225.84 1185.10,184.35 C1192.12,144.57 1192.76,139.29 1190.97,135.94 C1188.76,131.82 1179.03,128.86 1153.50,124.55 C1103.22,116.06 1037.41,113.26 1000.50,118.02 C923.03,128.03 876.96,163.58 864.11,223.29 C856.84,257.07 860.14,289.32 873.63,316.34 C884.41,337.90 896.95,351.08 923.00,368.21 C1007.66,423.85 1011.79,426.81 1015.42,434.47 C1017.41,438.66 1017.46,448.09 1015.53,454.58 C1012.65,464.27 1004.39,472.10 993.42,475.54 C978.98,480.06 952.88,479.16 872.40,471.38 C846.16,468.85 845.18,468.82 841.56,470.54 C834.40,473.94 833.92,475.52 826.51,520.23 C820.04,559.23 819.82,561.08 821.43,563.53 C824.05,567.53 828.26,569.55 840.84,572.85 C883.36,584.01 928.42,588.19 976.75,585.45 ZM 1300.70 578.04 C1302.46,576.97 1304.59,574.76 1305.44,573.13 C1306.77,570.54 1321.92,486.91 1339.50,385.00 C1342.58,367.12 1349.61,327.08 1355.12,296.00 C1367.32,227.08 1367.05,228.72 1366.55,228.22 C1366.21,227.87 1312.51,252.70 1248.51,282.80 L 1229.53 291.72 L 1227.85 301.61 C1226.93,307.05 1222.05,334.67 1217.02,363.00 C1211.98,391.33 1207.47,416.75 1206.99,419.50 C1206.52,422.25 1203.42,439.80 1200.12,458.50 C1187.07,532.35 1181.00,568.06 1181.00,571.04 C1181.00,573.15 1181.94,575.10 1183.92,577.08 L 1186.85 580.00 L 1242.17 580.00 C1295.28,579.99 1297.63,579.91 1300.70,578.04 ZM 1269.50 219.49 C1283.25,213.02 1312.71,199.22 1334.96,188.82 C1357.21,178.42 1375.52,169.81 1375.65,169.68 C1376.19,169.14 1384.00,123.46 1384.00,120.82 C1384.00,119.06 1383.03,116.94 1381.55,115.45 L 1379.09 113.00 L 1322.58 113.00 L 1266.07 113.00 L 1262.55 116.09 C1260.54,117.86 1258.60,120.75 1258.04,122.84 C1257.50,124.85 1254.76,139.77 1251.96,156.00 C1249.15,172.23 1245.73,191.80 1244.36,199.50 C1242.99,207.20 1241.23,217.10 1240.45,221.50 C1239.67,225.90 1239.03,230.52 1239.02,231.78 C1239.00,233.93 1239.14,233.98 1241.75,232.65 C1243.26,231.88 1255.75,225.96 1269.50,219.49 Z" fill="rgb(254,254,254)"/>
</g>
</svg>